<svg width="18" height="18" viewBox="0 0 18 18" fill="none" xmlns="http://www.w3.org/2000/svg">
<path d="M15.75 3.37461V6.74961C15.75 6.89879 15.6907 7.04187 15.5852 7.14735C15.4798 7.25284 15.3367 7.31211 15.1875 7.31211H11.8125C11.7012 7.31219 11.5923 7.27925 11.4998 7.21745C11.4072 7.15565 11.335 7.06776 11.2924 6.96493C11.2498 6.86209 11.2386 6.74892 11.2604 6.63975C11.2821 6.53057 11.3358 6.43031 11.4145 6.35164L12.702 5.06211C11.6663 4.06981 10.2888 3.51371 8.85445 3.5089H8.82281C7.3531 3.50602 5.94136 4.08194 4.89305 5.11203C4.78562 5.21231 4.64322 5.26657 4.4963 5.2632C4.34939 5.25983 4.20962 5.1991 4.10691 5.094C4.0042 4.9889 3.9467 4.84777 3.9467 4.70082C3.94671 4.55386 4.00423 4.41274 4.10695 4.30765C5.36089 3.08251 7.04229 2.39328 8.79536 2.3858C10.5484 2.37832 12.2357 3.05318 13.5 4.26758L14.7909 2.97664C14.8697 2.89836 14.9698 2.84514 15.0788 2.82368C15.1877 2.80221 15.3005 2.81347 15.4031 2.85602C15.5056 2.89857 15.5933 2.97052 15.655 3.06281C15.7168 3.15509 15.7498 3.26358 15.75 3.37461ZM13.107 12.8872C12.065 13.9048 10.669 14.4787 9.21257 14.488C7.75616 14.4973 6.3529 13.9414 5.29805 12.9371L6.58547 11.6497C6.66496 11.5711 6.71924 11.4707 6.7414 11.3611C6.76356 11.2516 6.75259 11.138 6.7099 11.0347C6.6672 10.9314 6.59471 10.8432 6.50166 10.7813C6.40862 10.7194 6.29925 10.6866 6.1875 10.6871H2.8125C2.66332 10.6871 2.52024 10.7464 2.41475 10.8519C2.30926 10.9573 2.25 11.1004 2.25 11.2496V14.6246C2.24991 14.7359 2.28286 14.8448 2.34466 14.9373C2.40646 15.0299 2.49434 15.1021 2.59718 15.1447C2.70002 15.1873 2.81319 15.1985 2.92236 15.1767C3.03153 15.155 3.1318 15.1013 3.21047 15.0226L4.5 13.7316C5.74608 14.9342 7.40889 15.6084 9.14062 15.6132H9.17789C10.9414 15.6177 12.6357 14.9273 13.8938 13.6916C13.9965 13.5865 14.054 13.4454 14.054 13.2984C14.054 13.1514 13.9965 13.0103 13.8938 12.9052C13.7911 12.8001 13.6513 12.7394 13.5044 12.736C13.3575 12.7326 13.2151 12.7869 13.1077 12.8872H13.107Z" fill="#A073CC"/>
</svg>
