<svg width="18" height="18" viewBox="0 0 18 18" fill="none" xmlns="http://www.w3.org/2000/svg">
<path d="M16.875 9.00035C16.8755 9.19134 16.8265 9.3792 16.7329 9.54565C16.6392 9.71211 16.5041 9.8515 16.3406 9.95027L6.21 16.1476C6.0392 16.2522 5.84358 16.3093 5.64334 16.313C5.44309 16.3167 5.24549 16.2669 5.07094 16.1687C4.89805 16.072 4.75402 15.9311 4.65368 15.7603C4.55333 15.5895 4.50029 15.3951 4.5 15.197V2.80371C4.50029 2.60563 4.55333 2.4112 4.65368 2.24042C4.75402 2.06963 4.89805 1.92866 5.07094 1.83199C5.24549 1.7338 5.44309 1.68398 5.64334 1.68769C5.84358 1.6914 6.0392 1.7485 6.21 1.85309L16.3406 8.05043C16.5041 8.1492 16.6392 8.28859 16.7329 8.45505C16.8265 8.62151 16.8755 8.80936 16.875 9.00035Z" fill="#5D428F"/>
</svg>
