<svg width="748" height="526" viewBox="0 0 748 526" fill="none" xmlns="http://www.w3.org/2000/svg">
<g clip-path="url(#clip0_575_73364)">
<path d="M609.435 348.188C610.272 347.102 610.86 345.846 611.159 344.508C611.457 343.17 611.459 341.783 611.163 340.444C610.868 339.105 610.282 337.848 609.448 336.76C608.614 335.672 607.551 334.781 606.335 334.148L608.188 312.8L595.488 308.51L593.294 338.694C592.367 340.807 592.247 343.187 592.957 345.383C593.667 347.578 595.158 349.437 597.147 350.607C599.136 351.778 601.485 352.178 603.749 351.732C606.013 351.286 608.036 350.026 609.432 348.189L609.435 348.188Z" fill="#FFB8B8"/>
<path d="M672.802 514.162H661.375L655.938 470.062H672.811L672.802 514.162Z" fill="#FFB8B8"/>
<path d="M653.206 510.895H675.254V524.777H639.324C639.324 521.095 640.787 517.564 643.39 514.96C645.994 512.357 649.524 510.895 653.206 510.895Z" fill="#2F2E41"/>
<path d="M646.855 484.9L635.755 487.628L619.949 446.105L636.334 442.078L646.855 484.9Z" fill="#FFB8B8"/>
<path d="M627.202 486.009L648.611 480.74L651.928 494.219L617.04 502.807C616.161 499.232 616.737 495.454 618.642 492.303C620.548 489.153 623.627 486.889 627.202 486.009Z" fill="#2F2E41"/>
<path d="M659.425 500.1C658.381 500.103 657.374 499.718 656.597 499.02C655.821 498.322 655.332 497.36 655.225 496.321L642.073 373.771L630.626 411.247L646.839 469.78C647.118 470.784 647.017 471.855 646.555 472.788C646.092 473.721 645.302 474.45 644.334 474.836L631.444 479.992C630.914 480.204 630.346 480.307 629.774 480.293C629.203 480.28 628.64 480.151 628.12 479.914C627.6 479.677 627.133 479.337 626.748 478.914C626.363 478.492 626.067 477.996 625.879 477.456L606.01 420.448C603.835 414.224 602.873 407.64 603.175 401.053L605.948 339.53L678.992 342.623L677.852 494.838C677.838 495.898 677.429 496.914 676.706 497.689C675.982 498.463 674.996 498.939 673.94 499.024L659.754 500.093C659.644 500.098 659.534 500.1 659.425 500.1Z" fill="#2F2E41"/>
<path d="M647.327 203.374C660.891 203.374 671.888 192.378 671.888 178.813C671.888 165.248 660.891 154.252 647.327 154.252C633.762 154.252 622.766 165.248 622.766 178.813C622.766 192.378 633.762 203.374 647.327 203.374Z" fill="#FFB8B8"/>
<path d="M665.39 346.625C658.922 346.625 650.89 346.096 642.573 345.549C631.213 344.801 619.467 344.028 610.698 344.536C609.514 344.654 608.319 344.466 607.228 343.991C606.137 343.516 605.186 342.769 604.466 341.822C595.427 330.248 609.366 285.114 609.966 283.199L621.31 232.731C623.81 221.631 631.781 213.443 642.123 211.363C651.803 209.419 661.166 213.294 667.171 221.738C667.49 222.186 667.808 222.646 668.126 223.117C687.678 252.074 676.619 324.017 675.878 328.656C676.911 329.893 682.496 336.888 680.961 341.747C680.336 343.724 678.64 345.071 675.919 345.747C672.452 346.434 668.919 346.727 665.387 346.622L665.39 346.625Z" fill="#7F55D6"/>
<path d="M611.095 346.647C608.87 346.647 605.869 345.826 601.823 344.147C600.084 343.423 594.792 341.222 601.217 285.075C604.373 257.495 608.894 230.107 608.939 229.834L608.982 229.57L609.226 229.46C609.342 229.407 620.888 224.115 622.896 217.314C622.963 217.079 623.041 216.85 623.13 216.629C623.683 215.117 624.798 213.877 626.242 213.168C627.687 212.458 629.35 212.334 630.884 212.821C632.505 213.208 633.917 214.198 634.835 215.588C635.753 216.979 636.107 218.667 635.826 220.309C635.127 224.745 633.782 229.055 631.835 233.101C626.402 244.311 622.721 274.029 622.685 274.328C622.477 276.866 617.547 337 616.597 341.563C616.265 343.157 615.655 345.107 613.864 346.053C613.005 346.477 612.055 346.683 611.097 346.653L611.095 346.647Z" fill="#2F2E41"/>
<path d="M637.923 344.343C637.475 344.343 637.039 344.193 636.684 343.918C629.458 338.427 641.152 271.867 648.084 248.902C649.473 244.302 650.709 240.365 651.76 237.196C653.675 231.509 655.012 225.644 655.749 219.69C656.131 216.464 656.96 214.622 658.286 214.057C659.207 213.664 660.286 213.931 661.506 214.85C667.913 214.534 674.138 217.15 679.906 220.031L685.098 222.621L690.924 325.77C690.759 332.353 677.783 337 672.124 337.297C663.035 337.774 646.714 339.254 639.524 343.806C639.053 344.133 638.498 344.319 637.924 344.342L637.923 344.343Z" fill="#2F2E41"/>
<path d="M605.47 324.989C605.384 324.989 605.298 324.989 605.211 324.98L593.443 324.257C592.857 324.221 592.285 324.063 591.764 323.794C591.242 323.525 590.782 323.15 590.413 322.694C590.044 322.238 589.774 321.709 589.62 321.143C589.467 320.576 589.432 319.984 589.52 319.404L594.845 284.125L604.869 234.625C605.116 233.405 605.616 232.251 606.338 231.238C607.059 230.224 607.986 229.374 609.057 228.741C610.128 228.109 611.32 227.708 612.556 227.566C613.792 227.424 615.044 227.543 616.231 227.916C618.26 228.563 619.991 229.914 621.111 231.726C622.231 233.538 622.667 235.69 622.339 237.795L614.375 287.395L609.66 321.342C609.515 322.351 609.012 323.275 608.243 323.944C607.473 324.614 606.49 324.984 605.47 324.989Z" fill="#2F2E41"/>
<path d="M645.669 286.374C646.387 285.206 647.352 284.21 648.497 283.455C649.641 282.701 650.937 282.206 652.293 282.007C653.65 281.807 655.033 281.907 656.346 282.3C657.66 282.693 658.871 283.369 659.895 284.281L679.189 274.961L687.713 285.305L660.28 298.084C658.635 299.702 656.453 300.66 654.148 300.777C651.843 300.894 649.575 300.162 647.774 298.718C645.973 297.275 644.764 295.221 644.376 292.946C643.988 290.671 644.449 288.332 645.669 286.374Z" fill="#FFB8B8"/>
<path d="M672.476 296.383C671.526 296.383 670.603 296.063 669.857 295.475C669.111 294.887 668.584 294.065 668.362 293.142L665.562 281.492C665.348 280.616 665.421 279.694 665.77 278.862C666.119 278.031 666.726 277.333 667.502 276.873L684.402 266.757L675.762 235.123C675.014 232.414 675.357 229.52 676.716 227.06C678.076 224.601 680.344 222.772 683.036 221.964C685.728 221.156 688.628 221.434 691.118 222.738C693.607 224.042 695.487 226.269 696.355 228.942L705.894 258.067C707.065 261.617 707.075 265.449 705.92 269.004C704.765 272.56 702.507 275.655 699.473 277.84L674.953 295.58C674.232 296.102 673.365 296.383 672.476 296.383Z" fill="#2F2E41"/>
<path d="M489.874 0H16.68C12.2578 0.00529287 8.01826 1.76435 4.8913 4.89131C1.76434 8.01827 0.00529287 12.2578 0 16.68V67.6C0.00529287 72.0222 1.76434 76.2617 4.8913 79.3887C8.01826 82.5157 12.2578 84.2747 16.68 84.28H489.874C494.296 84.2747 498.536 82.5157 501.663 79.3887C504.79 76.2617 506.549 72.0222 506.554 67.6V16.68C506.549 12.2578 504.79 8.01827 501.663 4.89131C498.536 1.76435 494.296 0.00529287 489.874 0ZM504.798 67.6C504.792 71.5563 503.218 75.3489 500.42 78.1464C497.623 80.944 493.83 82.5182 489.874 82.524H16.68C12.7237 82.5182 8.93109 80.944 6.13356 78.1464C3.33603 75.3489 1.76182 71.5563 1.756 67.6V16.68C1.76182 12.7237 3.33603 8.93109 6.13356 6.13356C8.93109 3.33603 12.7237 1.76182 16.68 1.756H489.874C493.83 1.76182 497.623 3.33603 500.42 6.13356C503.218 8.93109 504.792 12.7237 504.798 16.68V67.6Z" fill="#3F3D56"/>
<path d="M489.874 204.553H16.68C12.2578 204.548 8.01826 202.789 4.8913 199.662C1.76434 196.535 0.00529287 192.296 0 187.873V136.954C0.00529287 132.532 1.76434 128.293 4.8913 125.166C8.01826 122.039 12.2578 120.28 16.68 120.274H489.874C494.296 120.28 498.536 122.039 501.663 125.166C504.79 128.293 506.549 132.532 506.554 136.954V187.873C506.549 192.296 504.79 196.535 501.663 199.662C498.536 202.789 494.296 204.548 489.874 204.553ZM16.68 122.03C12.7233 122.035 8.92993 123.609 6.13211 126.407C3.33429 129.204 1.7605 132.998 1.756 136.954V187.873C1.7597 191.831 3.33314 195.625 6.13104 198.423C8.92895 201.222 12.7228 202.796 16.68 202.8H489.874C493.831 202.796 497.625 201.223 500.423 198.425C503.221 195.627 504.795 191.833 504.799 187.876V136.954C504.795 132.998 503.221 129.204 500.423 126.407C497.625 123.609 493.832 122.035 489.875 122.03H16.68Z" fill="#CCCCCC"/>
<path d="M489.874 324.827H16.68C12.2578 324.822 8.01826 323.063 4.8913 319.936C1.76434 316.809 0.00529287 312.569 0 308.147V257.228C0.00529287 252.806 1.76434 248.566 4.8913 245.439C8.01826 242.312 12.2578 240.553 16.68 240.548H489.874C494.296 240.553 498.536 242.312 501.663 245.439C504.79 248.566 506.549 252.806 506.554 257.228V308.147C506.549 312.569 504.79 316.809 501.663 319.936C498.536 323.063 494.296 324.822 489.874 324.827ZM16.68 242.3C12.7233 242.304 8.92993 243.878 6.13211 246.676C3.33429 249.474 1.7605 253.267 1.756 257.224V308.143C1.76023 312.1 3.33391 315.893 6.13176 318.691C8.92961 321.489 12.7231 323.063 16.68 323.068H489.874C493.831 323.064 497.625 321.49 500.423 318.692C503.221 315.894 504.795 312.101 504.799 308.144V257.228C504.796 253.27 503.222 249.476 500.424 246.677C497.626 243.878 493.832 242.304 489.874 242.3H16.68Z" fill="#CCCCCC"/>
<path d="M80.6179 71.1724C74.876 71.1724 69.2629 69.4697 64.4886 66.2796C59.7143 63.0896 55.9933 58.5554 53.7959 53.2505C51.5985 47.9456 51.0236 42.1082 52.1438 36.4765C53.264 30.8449 56.029 25.6719 60.0892 21.6117C64.1494 17.5515 69.3224 14.7865 74.9541 13.6663C80.5857 12.546 86.4231 13.121 91.728 15.3183C97.0329 17.5157 101.567 21.2368 104.757 26.0111C107.947 30.7854 109.65 36.3984 109.65 42.1404C109.65 49.8402 106.591 57.2246 101.147 62.6691C95.7021 68.1137 88.3177 71.1724 80.6179 71.1724Z" fill="#7F55D6"/>
<path d="M447.009 65.8429H137.109C135.247 65.8429 133.46 65.1029 132.143 63.7858C130.826 62.4686 130.086 60.6821 130.086 58.8194C130.086 56.9566 130.826 55.1702 132.143 53.853C133.46 52.5359 135.247 51.7959 137.109 51.7959H447.009C448.872 51.7959 450.659 52.5359 451.976 53.853C453.293 55.1702 454.033 56.9566 454.033 58.8194C454.033 60.6821 453.293 62.4686 451.976 63.7858C450.659 65.1029 448.872 65.8429 447.009 65.8429Z" fill="#CCCCCC"/>
<path d="M346.044 35.9943H137.102C135.239 35.9943 133.452 35.2543 132.135 33.9371C130.818 32.62 130.078 30.8335 130.078 28.9708C130.078 27.108 130.818 25.3216 132.135 24.0044C133.452 22.6872 135.239 21.9473 137.102 21.9473H346.044C347.906 21.9473 349.693 22.6872 351.01 24.0044C352.327 25.3216 353.067 27.108 353.067 28.9708C353.067 30.8335 352.327 32.62 351.01 33.9371C349.693 35.2543 347.906 35.9943 346.044 35.9943Z" fill="#CCCCCC"/>
<path d="M80.6179 191.445C74.876 191.445 69.2629 189.742 64.4886 186.552C59.7143 183.362 55.9933 178.828 53.7959 173.523C51.5985 168.218 51.0236 162.381 52.1438 156.749C53.264 151.117 56.029 145.944 60.0892 141.884C64.1494 137.824 69.3224 135.059 74.9541 133.939C80.5857 132.819 86.4231 133.393 91.728 135.591C97.0329 137.788 101.567 141.509 104.757 146.284C107.947 151.058 109.65 156.671 109.65 162.413C109.65 170.113 106.591 177.497 101.147 182.942C95.7021 188.386 88.3177 191.445 80.6179 191.445Z" fill="#E6E6E6"/>
<path d="M447.009 186.117H137.109C135.247 186.117 133.46 185.377 132.143 184.06C130.826 182.743 130.086 180.957 130.086 179.094C130.086 177.231 130.826 175.445 132.143 174.127C133.46 172.81 135.247 172.07 137.109 172.07H447.009C448.872 172.07 450.659 172.81 451.976 174.127C453.293 175.445 454.033 177.231 454.033 179.094C454.033 180.957 453.293 182.743 451.976 184.06C450.659 185.377 448.872 186.117 447.009 186.117Z" fill="#E6E6E6"/>
<path d="M346.044 156.268H137.102C135.239 156.268 133.452 155.528 132.135 154.211C130.818 152.893 130.078 151.107 130.078 149.244C130.078 147.381 130.818 145.595 132.135 144.278C133.452 142.961 135.239 142.221 137.102 142.221H346.044C347.906 142.221 349.693 142.961 351.01 144.278C352.327 145.595 353.067 147.381 353.067 149.244C353.067 151.107 352.327 152.893 351.01 154.211C349.693 155.528 347.906 156.268 346.044 156.268Z" fill="#E6E6E6"/>
<path d="M80.6179 311.719C74.876 311.719 69.2629 310.017 64.4886 306.827C59.7143 303.636 55.9933 299.102 53.7959 293.797C51.5985 288.492 51.0236 282.655 52.1438 277.023C53.264 271.392 56.029 266.219 60.0892 262.159C64.1494 258.098 69.3224 255.333 74.9541 254.213C80.5857 253.093 86.4231 253.668 91.728 255.865C97.0329 258.063 101.567 261.784 104.757 266.558C107.947 271.332 109.65 276.945 109.65 282.687C109.65 290.387 106.591 297.771 101.147 303.216C95.7021 308.661 88.3177 311.719 80.6179 311.719Z" fill="#E6E6E6"/>
<path d="M447.009 306.391H137.109C135.247 306.391 133.46 305.651 132.143 304.334C130.826 303.016 130.086 301.23 130.086 299.367C130.086 297.505 130.826 295.718 132.143 294.401C133.46 293.084 135.247 292.344 137.109 292.344H447.009C448.872 292.344 450.659 293.084 451.976 294.401C453.293 295.718 454.033 297.505 454.033 299.367C454.033 301.23 453.293 303.016 451.976 304.334C450.659 305.651 448.872 306.391 447.009 306.391Z" fill="#E6E6E6"/>
<path d="M346.044 276.542H137.102C135.239 276.542 133.452 275.802 132.135 274.485C130.818 273.168 130.078 271.381 130.078 269.519C130.078 267.656 130.818 265.869 132.135 264.552C133.452 263.235 135.239 262.495 137.102 262.495H346.044C347.906 262.495 349.693 263.235 351.01 264.552C352.327 265.869 353.067 267.656 353.067 269.519C353.067 271.381 352.327 273.168 351.01 274.485C349.693 275.802 347.906 276.542 346.044 276.542Z" fill="#E6E6E6"/>
<path d="M79.1362 52.3515C78.4151 52.3532 77.7131 52.1201 77.1362 51.6875L77.1002 51.6605L69.5752 45.9045C69.2267 45.6373 68.9342 45.3041 68.7144 44.9239C68.4947 44.5437 68.352 44.1239 68.2944 43.6886C68.2369 43.2532 68.2657 42.8108 68.3792 42.3865C68.4926 41.9623 68.6886 41.5645 68.9557 41.216C69.2229 40.8675 69.5561 40.575 69.9363 40.3552C70.3165 40.1355 70.7363 39.9928 71.1717 39.9352C71.607 39.8777 72.0495 39.9065 72.4737 40.02C72.8979 40.1334 73.2957 40.3293 73.6442 40.5965L78.5182 44.3345L90.0352 29.3085C90.5747 28.6052 91.3713 28.1449 92.25 28.0288C93.1288 27.9127 94.0176 28.1504 94.7212 28.6895L94.6502 28.7895L94.7232 28.6895C95.4258 29.2298 95.8854 30.0266 96.0012 30.9052C96.1171 31.7839 95.8797 32.6726 95.3412 33.3765L81.7942 51.0425C81.4803 51.4488 81.0772 51.7774 80.6159 52.0028C80.1546 52.2283 79.6476 52.3445 79.1342 52.3425L79.1362 52.3515Z" fill="white"/>
<path d="M746.621 526H548.621C548.356 526 548.102 525.895 547.914 525.707C547.726 525.52 547.621 525.265 547.621 525C547.621 524.735 547.726 524.48 547.914 524.293C548.102 524.105 548.356 524 548.621 524H746.621C746.886 524 747.141 524.105 747.328 524.293C747.516 524.48 747.621 524.735 747.621 525C747.621 525.265 747.516 525.52 747.328 525.707C747.141 525.895 746.886 526 746.621 526Z" fill="#CCCCCC"/>
<path d="M656.359 185.36C656.359 185.36 653.37 168.834 646.569 170.808C639.767 172.783 622.264 174.803 622.232 167.02C622.199 159.237 638.708 152.358 648.44 153.289C658.173 154.22 674.723 157.068 673.812 171.665C673.083 180.859 670.241 189.76 665.509 197.675L656.359 185.36Z" fill="#2F2E41"/>
</g>
<defs>
<clipPath id="clip0_575_73364">
<rect width="747.62" height="526" fill="white"/>
</clipPath>
</defs>
</svg>
