<svg width="18" height="18" viewBox="0 0 18 18" fill="none" xmlns="http://www.w3.org/2000/svg">
<path d="M12.4095 6.71555C12.4881 6.79393 12.5505 6.88708 12.5931 6.98964C12.6357 7.0922 12.6576 7.20215 12.6576 7.3132C12.6576 7.42425 12.6357 7.53421 12.5931 7.63677C12.5505 7.73933 12.4881 7.83247 12.4095 7.91086L8.47196 11.8484C8.39357 11.927 8.30043 11.9894 8.19787 12.032C8.09531 12.0746 7.98535 12.0965 7.8743 12.0965C7.76325 12.0965 7.65329 12.0746 7.55073 12.032C7.44817 11.9894 7.35503 11.927 7.27664 11.8484L5.58914 10.1609C5.51066 10.0824 5.4484 9.9892 5.40593 9.88665C5.36345 9.78411 5.34159 9.6742 5.34159 9.5632C5.34159 9.45221 5.36345 9.3423 5.40593 9.23975C5.4484 9.13721 5.51066 9.04403 5.58914 8.96555C5.66763 8.88706 5.76081 8.8248 5.86335 8.78233C5.9659 8.73985 6.0758 8.71799 6.1868 8.71799C6.29779 8.71799 6.4077 8.73985 6.51025 8.78233C6.6128 8.8248 6.70597 8.88706 6.78446 8.96555L7.875 10.0547L11.2155 6.71344C11.2941 6.63513 11.3872 6.57306 11.4897 6.53078C11.5922 6.4885 11.7021 6.46684 11.8129 6.46703C11.9238 6.46723 12.0336 6.48928 12.1359 6.53192C12.2383 6.57456 12.3312 6.63696 12.4095 6.71555ZM16.5938 9C16.5938 10.5019 16.1484 11.9701 15.314 13.2189C14.4796 14.4676 13.2936 15.441 11.906 16.0157C10.5184 16.5905 8.99158 16.7408 7.51854 16.4478C6.04549 16.1548 4.69242 15.4316 3.63041 14.3696C2.56841 13.3076 1.84517 11.9545 1.55217 10.4815C1.25916 9.00842 1.40954 7.48157 1.98429 6.094C2.55905 4.70642 3.53236 3.52044 4.78114 2.68603C6.02993 1.85162 7.4981 1.40625 9 1.40625C11.0133 1.40848 12.9435 2.20925 14.3671 3.63287C15.7907 5.0565 16.5915 6.9867 16.5938 9ZM14.9063 9C14.9063 7.83185 14.5599 6.68994 13.9109 5.71866C13.2619 4.74739 12.3395 3.99037 11.2602 3.54334C10.181 3.09631 8.99345 2.97934 7.84775 3.20724C6.70205 3.43513 5.64966 3.99765 4.82365 4.82365C3.99765 5.64965 3.43513 6.70205 3.20724 7.84775C2.97935 8.99345 3.09631 10.181 3.54334 11.2602C3.99037 12.3394 4.74739 13.2619 5.71867 13.9109C6.68994 14.5599 7.83186 14.9062 9 14.9062C10.5659 14.9046 12.0672 14.2818 13.1745 13.1745C14.2818 12.0672 14.9046 10.5659 14.9063 9Z" fill="#A073CC"/>
</svg>
